<mxfile host="app.diagrams.net" agent="Mozilla/5.0 (Windows NT 10.0; Win64; x64) AppleWebKit/537.36 (KHTML, like Gecko) Chrome/133.0.0.0 Safari/537.36" scale="1" border="0" version="26.0.12">
  <diagram name="Page-1" id="_UmVMRvpcCo9giyiSSlA">
    <mxGraphModel dx="2765" dy="364" grid="1" gridSize="10" guides="1" tooltips="1" connect="1" arrows="1" fold="1" page="1" pageScale="1" pageWidth="850" pageHeight="1100" math="0" shadow="0">
      <root>
        <mxCell id="0" />
        <mxCell id="1" parent="0" />
        <mxCell id="2qdgMQusHtdd9GZm5tY_-138" value="free" style="rounded=0;whiteSpace=wrap;html=1;" parent="1" vertex="1">
          <mxGeometry x="1510" y="1180" width="120" height="60" as="geometry" />
        </mxCell>
        <mxCell id="2qdgMQusHtdd9GZm5tY_-140" value="gold" style="rounded=0;whiteSpace=wrap;html=1;" parent="1" vertex="1">
          <mxGeometry x="1510" y="1335" width="120" height="60" as="geometry" />
        </mxCell>
        <mxCell id="2qdgMQusHtdd9GZm5tY_-141" value="" style="endArrow=classic;html=1;rounded=0;" parent="1" edge="1">
          <mxGeometry width="50" height="50" relative="1" as="geometry">
            <mxPoint x="1570" y="1250" as="sourcePoint" />
            <mxPoint x="1570" y="1330" as="targetPoint" />
          </mxGeometry>
        </mxCell>
        <mxCell id="2qdgMQusHtdd9GZm5tY_-172" value="logout" style="text;html=1;align=center;verticalAlign=middle;whiteSpace=wrap;rounded=0;" parent="1" vertex="1">
          <mxGeometry x="1995" y="1247.5" width="60" height="30" as="geometry" />
        </mxCell>
        <mxCell id="AoWH3DuFOTNRUcTnW1il-50" style="edgeStyle=orthogonalEdgeStyle;rounded=0;orthogonalLoop=1;jettySize=auto;html=1;entryX=0;entryY=0.5;entryDx=0;entryDy=0;" edge="1" parent="1" source="2qdgMQusHtdd9GZm5tY_-173" target="2qdgMQusHtdd9GZm5tY_-175">
          <mxGeometry relative="1" as="geometry" />
        </mxCell>
        <mxCell id="2qdgMQusHtdd9GZm5tY_-173" value="Not logged in&amp;nbsp;" style="rounded=0;whiteSpace=wrap;html=1;" parent="1" vertex="1">
          <mxGeometry x="2070" y="1247.5" width="120" height="60" as="geometry" />
        </mxCell>
        <mxCell id="2qdgMQusHtdd9GZm5tY_-177" style="edgeStyle=orthogonalEdgeStyle;rounded=0;orthogonalLoop=1;jettySize=auto;html=1;entryX=0;entryY=0.5;entryDx=0;entryDy=0;" parent="1" source="2qdgMQusHtdd9GZm5tY_-178" target="2qdgMQusHtdd9GZm5tY_-179" edge="1">
          <mxGeometry relative="1" as="geometry">
            <mxPoint x="440" y="1315" as="targetPoint" />
            <Array as="points">
              <mxPoint x="440" y="1260" />
              <mxPoint x="440" y="1295" />
            </Array>
          </mxGeometry>
        </mxCell>
        <mxCell id="2qdgMQusHtdd9GZm5tY_-178" value="" style="ellipse;whiteSpace=wrap;html=1;aspect=fixed;strokeColor=#1A1A1A;fillColor=#1A1A1A;" parent="1" vertex="1">
          <mxGeometry x="380" y="1260" width="70" height="70" as="geometry" />
        </mxCell>
        <mxCell id="2qdgMQusHtdd9GZm5tY_-179" value="Not logged in" style="rounded=1;whiteSpace=wrap;html=1;" parent="1" vertex="1">
          <mxGeometry x="490" y="1265" width="120" height="60" as="geometry" />
        </mxCell>
        <mxCell id="2qdgMQusHtdd9GZm5tY_-205" style="edgeStyle=orthogonalEdgeStyle;rounded=0;orthogonalLoop=1;jettySize=auto;html=1;exitX=1;exitY=0.5;exitDx=0;exitDy=0;entryX=0.025;entryY=0.498;entryDx=0;entryDy=0;entryPerimeter=0;" parent="1" source="2qdgMQusHtdd9GZm5tY_-181" edge="1" target="AoWH3DuFOTNRUcTnW1il-52">
          <mxGeometry relative="1" as="geometry">
            <mxPoint x="910" y="1297.2826086956525" as="targetPoint" />
          </mxGeometry>
        </mxCell>
        <mxCell id="2qdgMQusHtdd9GZm5tY_-181" value="logged in" style="rounded=0;whiteSpace=wrap;html=1;" parent="1" vertex="1">
          <mxGeometry x="741" y="1260" width="120" height="60" as="geometry" />
        </mxCell>
        <mxCell id="2qdgMQusHtdd9GZm5tY_-192" value="Choose Subscription" style="rhombus;whiteSpace=wrap;html=1;" parent="1" vertex="1">
          <mxGeometry x="1220" y="1241" width="95" height="94" as="geometry" />
        </mxCell>
        <mxCell id="2qdgMQusHtdd9GZm5tY_-193" value="upgrade plan&lt;div&gt;&lt;br&gt;&lt;/div&gt;" style="text;html=1;align=center;verticalAlign=middle;resizable=0;points=[];autosize=1;strokeColor=none;fillColor=none;" parent="1" vertex="1">
          <mxGeometry x="1570" y="1270" width="90" height="40" as="geometry" />
        </mxCell>
        <mxCell id="2qdgMQusHtdd9GZm5tY_-194" value="List property" style="text;html=1;align=center;verticalAlign=middle;resizable=0;points=[];autosize=1;strokeColor=none;fillColor=none;" parent="1" vertex="1">
          <mxGeometry x="1687.5" y="1200" width="90" height="30" as="geometry" />
        </mxCell>
        <mxCell id="AoWH3DuFOTNRUcTnW1il-51" style="edgeStyle=orthogonalEdgeStyle;rounded=0;orthogonalLoop=1;jettySize=auto;html=1;entryX=0;entryY=0.5;entryDx=0;entryDy=0;" edge="1" parent="1" source="2qdgMQusHtdd9GZm5tY_-195" target="2qdgMQusHtdd9GZm5tY_-173">
          <mxGeometry relative="1" as="geometry" />
        </mxCell>
        <mxCell id="2qdgMQusHtdd9GZm5tY_-195" value="property listed" style="whiteSpace=wrap;html=1;" parent="1" vertex="1">
          <mxGeometry x="1830" y="1247.5" width="120" height="60" as="geometry" />
        </mxCell>
        <mxCell id="2qdgMQusHtdd9GZm5tY_-200" style="edgeStyle=orthogonalEdgeStyle;rounded=0;orthogonalLoop=1;jettySize=auto;html=1;entryX=0;entryY=0.5;entryDx=0;entryDy=0;" parent="1" source="2qdgMQusHtdd9GZm5tY_-197" target="2qdgMQusHtdd9GZm5tY_-195" edge="1">
          <mxGeometry relative="1" as="geometry" />
        </mxCell>
        <mxCell id="2qdgMQusHtdd9GZm5tY_-197" value="" style="html=1;points=[];perimeter=orthogonalPerimeter;fillColor=strokeColor;" parent="1" vertex="1">
          <mxGeometry x="1730" y="1237.5" width="5" height="80" as="geometry" />
        </mxCell>
        <mxCell id="2qdgMQusHtdd9GZm5tY_-198" style="edgeStyle=orthogonalEdgeStyle;rounded=0;orthogonalLoop=1;jettySize=auto;html=1;entryX=0.2;entryY=0.454;entryDx=0;entryDy=0;entryPerimeter=0;" parent="1" source="2qdgMQusHtdd9GZm5tY_-138" target="2qdgMQusHtdd9GZm5tY_-197" edge="1">
          <mxGeometry relative="1" as="geometry" />
        </mxCell>
        <mxCell id="AoWH3DuFOTNRUcTnW1il-44" style="edgeStyle=orthogonalEdgeStyle;rounded=0;orthogonalLoop=1;jettySize=auto;html=1;entryX=0;entryY=0.5;entryDx=0;entryDy=0;" edge="1" parent="1" source="2qdgMQusHtdd9GZm5tY_-201" target="2qdgMQusHtdd9GZm5tY_-138">
          <mxGeometry relative="1" as="geometry">
            <Array as="points">
              <mxPoint x="1439" y="1277.5" />
              <mxPoint x="1439" y="1210.5" />
            </Array>
          </mxGeometry>
        </mxCell>
        <mxCell id="AoWH3DuFOTNRUcTnW1il-45" style="edgeStyle=orthogonalEdgeStyle;rounded=0;orthogonalLoop=1;jettySize=auto;html=1;entryX=0;entryY=0.5;entryDx=0;entryDy=0;" edge="1" parent="1" source="2qdgMQusHtdd9GZm5tY_-201" target="2qdgMQusHtdd9GZm5tY_-140">
          <mxGeometry relative="1" as="geometry">
            <Array as="points">
              <mxPoint x="1440" y="1307.5" />
              <mxPoint x="1440" y="1365.5" />
            </Array>
          </mxGeometry>
        </mxCell>
        <mxCell id="2qdgMQusHtdd9GZm5tY_-201" value="" style="html=1;points=[];perimeter=orthogonalPerimeter;fillColor=strokeColor;" parent="1" vertex="1">
          <mxGeometry x="1364" y="1250" width="5" height="80" as="geometry" />
        </mxCell>
        <mxCell id="AoWH3DuFOTNRUcTnW1il-37" style="edgeStyle=orthogonalEdgeStyle;rounded=0;orthogonalLoop=1;jettySize=auto;html=1;entryX=0;entryY=0.5;entryDx=0;entryDy=0;" edge="1" parent="1" target="2qdgMQusHtdd9GZm5tY_-209">
          <mxGeometry relative="1" as="geometry">
            <mxPoint x="920" y="1287.5" as="sourcePoint" />
            <Array as="points">
              <mxPoint x="945" y="1287.5" />
              <mxPoint x="945" y="1239.5" />
            </Array>
          </mxGeometry>
        </mxCell>
        <mxCell id="AoWH3DuFOTNRUcTnW1il-38" style="edgeStyle=orthogonalEdgeStyle;rounded=0;orthogonalLoop=1;jettySize=auto;html=1;entryX=0;entryY=0.5;entryDx=0;entryDy=0;" edge="1" parent="1" target="2qdgMQusHtdd9GZm5tY_-210">
          <mxGeometry relative="1" as="geometry">
            <mxPoint x="920" y="1297.5" as="sourcePoint" />
          </mxGeometry>
        </mxCell>
        <mxCell id="2qdgMQusHtdd9GZm5tY_-209" value="verified" style="rounded=0;whiteSpace=wrap;html=1;" parent="1" vertex="1">
          <mxGeometry x="970" y="1210" width="120" height="60" as="geometry" />
        </mxCell>
        <mxCell id="2qdgMQusHtdd9GZm5tY_-210" value="not verified" style="rounded=0;whiteSpace=wrap;html=1;" parent="1" vertex="1">
          <mxGeometry x="970" y="1320" width="120" height="60" as="geometry" />
        </mxCell>
        <mxCell id="2qdgMQusHtdd9GZm5tY_-214" style="edgeStyle=orthogonalEdgeStyle;rounded=0;orthogonalLoop=1;jettySize=auto;html=1;entryX=0;entryY=0.5;entryDx=0;entryDy=0;" parent="1" source="2qdgMQusHtdd9GZm5tY_-213" target="2qdgMQusHtdd9GZm5tY_-192" edge="1">
          <mxGeometry relative="1" as="geometry">
            <Array as="points">
              <mxPoint x="1200" y="1287.5" />
            </Array>
          </mxGeometry>
        </mxCell>
        <mxCell id="2qdgMQusHtdd9GZm5tY_-213" value="" style="html=1;points=[];perimeter=orthogonalPerimeter;fillColor=strokeColor;" parent="1" vertex="1">
          <mxGeometry x="1175" y="1250" width="5" height="80" as="geometry" />
        </mxCell>
        <mxCell id="vFB9w--csMzwg7RSDVOJ-2" value="&lt;span style=&quot;color: rgb(0, 0, 0); font-family: Helvetica; font-size: 11px; font-style: normal; font-variant-ligatures: normal; font-variant-caps: normal; font-weight: 400; letter-spacing: normal; orphans: 2; text-align: center; text-indent: 0px; text-transform: none; widows: 2; word-spacing: 0px; -webkit-text-stroke-width: 0px; white-space: nowrap; background-color: rgb(255, 255, 255); text-decoration-thickness: initial; text-decoration-style: initial; text-decoration-color: initial; float: none; display: inline !important;&quot;&gt;search for property&amp;nbsp;&lt;/span&gt;" style="text;whiteSpace=wrap;html=1;" parent="1" vertex="1">
          <mxGeometry x="840" y="1855" width="70" height="40" as="geometry" />
        </mxCell>
        <mxCell id="vFB9w--csMzwg7RSDVOJ-5" value="property details&amp;nbsp;" style="rounded=0;whiteSpace=wrap;html=1;" parent="1" vertex="1">
          <mxGeometry x="1580" y="1855" width="120" height="60" as="geometry" />
        </mxCell>
        <mxCell id="vFB9w--csMzwg7RSDVOJ-13" value="" style="endArrow=classic;html=1;rounded=0;exitX=1;exitY=0.5;exitDx=0;exitDy=0;entryX=0;entryY=0.5;entryDx=0;entryDy=0;" parent="1" edge="1" target="vFB9w--csMzwg7RSDVOJ-15" source="vFB9w--csMzwg7RSDVOJ-5">
          <mxGeometry width="50" height="50" relative="1" as="geometry">
            <mxPoint x="1695" y="1880" as="sourcePoint" />
            <mxPoint x="1845" y="1880" as="targetPoint" />
          </mxGeometry>
        </mxCell>
        <mxCell id="vFB9w--csMzwg7RSDVOJ-14" value="&lt;span style=&quot;color: rgb(0, 0, 0); font-family: Helvetica; font-size: 11px; font-style: normal; font-variant-ligatures: normal; font-variant-caps: normal; font-weight: 400; letter-spacing: normal; orphans: 2; text-align: center; text-indent: 0px; text-transform: none; widows: 2; word-spacing: 0px; -webkit-text-stroke-width: 0px; white-space: nowrap; background-color: rgb(255, 255, 255); text-decoration-thickness: initial; text-decoration-style: initial; text-decoration-color: initial; float: none; display: inline !important;&quot;&gt;book appointment&lt;/span&gt;" style="text;whiteSpace=wrap;html=1;" parent="1" vertex="1">
          <mxGeometry x="1725" y="1860" width="70" height="40" as="geometry" />
        </mxCell>
        <mxCell id="vFB9w--csMzwg7RSDVOJ-15" value="appointment booked&amp;nbsp;" style="rounded=0;whiteSpace=wrap;html=1;" parent="1" vertex="1">
          <mxGeometry x="1845" y="1855" width="120" height="60" as="geometry" />
        </mxCell>
        <mxCell id="vFB9w--csMzwg7RSDVOJ-16" value="" style="endArrow=classic;html=1;rounded=0;exitX=1;exitY=0.5;exitDx=0;exitDy=0;entryX=0;entryY=0.5;entryDx=0;entryDy=0;" parent="1" source="vFB9w--csMzwg7RSDVOJ-15" edge="1" target="vFB9w--csMzwg7RSDVOJ-18">
          <mxGeometry width="50" height="50" relative="1" as="geometry">
            <mxPoint x="1995" y="1900" as="sourcePoint" />
            <mxPoint x="2095" y="1880" as="targetPoint" />
          </mxGeometry>
        </mxCell>
        <mxCell id="vFB9w--csMzwg7RSDVOJ-17" value="&lt;span style=&quot;color: rgb(0, 0, 0); font-family: Helvetica; font-size: 11px; font-style: normal; font-variant-ligatures: normal; font-variant-caps: normal; font-weight: 400; letter-spacing: normal; orphans: 2; text-align: center; text-indent: 0px; text-transform: none; widows: 2; word-spacing: 0px; -webkit-text-stroke-width: 0px; white-space: nowrap; background-color: rgb(255, 255, 255); text-decoration-thickness: initial; text-decoration-style: initial; text-decoration-color: initial; float: none; display: inline !important;&quot;&gt;view appointment&lt;/span&gt;" style="text;whiteSpace=wrap;html=1;" parent="1" vertex="1">
          <mxGeometry x="1985" y="1855" width="70" height="40" as="geometry" />
        </mxCell>
        <mxCell id="AoWH3DuFOTNRUcTnW1il-31" style="edgeStyle=orthogonalEdgeStyle;rounded=0;orthogonalLoop=1;jettySize=auto;html=1;entryX=0;entryY=0.5;entryDx=0;entryDy=0;" edge="1" parent="1" source="vFB9w--csMzwg7RSDVOJ-18" target="vFB9w--csMzwg7RSDVOJ-21">
          <mxGeometry relative="1" as="geometry" />
        </mxCell>
        <mxCell id="vFB9w--csMzwg7RSDVOJ-18" value="appointment details&amp;nbsp;" style="rounded=0;whiteSpace=wrap;html=1;" parent="1" vertex="1">
          <mxGeometry x="2095" y="1855" width="120" height="60" as="geometry" />
        </mxCell>
        <mxCell id="vFB9w--csMzwg7RSDVOJ-20" value="&lt;div style=&quot;text-align: center;&quot;&gt;&lt;span style=&quot;font-size: 11px; text-wrap-mode: nowrap; background-color: rgb(255, 255, 255);&quot;&gt;Rate&lt;/span&gt;&lt;/div&gt;" style="text;whiteSpace=wrap;html=1;" parent="1" vertex="1">
          <mxGeometry x="2245" y="1855" width="35" height="40" as="geometry" />
        </mxCell>
        <mxCell id="vFB9w--csMzwg7RSDVOJ-21" value="seller rated&amp;nbsp;" style="rounded=0;whiteSpace=wrap;html=1;" parent="1" vertex="1">
          <mxGeometry x="2290" y="1855" width="120" height="60" as="geometry" />
        </mxCell>
        <mxCell id="vFB9w--csMzwg7RSDVOJ-30" style="edgeStyle=orthogonalEdgeStyle;rounded=0;orthogonalLoop=1;jettySize=auto;html=1;entryX=0;entryY=0.5;entryDx=0;entryDy=0;" parent="1" source="vFB9w--csMzwg7RSDVOJ-31" target="vFB9w--csMzwg7RSDVOJ-32" edge="1">
          <mxGeometry relative="1" as="geometry">
            <mxPoint x="390" y="1910" as="targetPoint" />
            <Array as="points">
              <mxPoint x="390" y="1855" />
              <mxPoint x="390" y="1890" />
            </Array>
          </mxGeometry>
        </mxCell>
        <mxCell id="vFB9w--csMzwg7RSDVOJ-31" value="" style="ellipse;whiteSpace=wrap;html=1;aspect=fixed;strokeColor=#1A1A1A;fillColor=#1A1A1A;" parent="1" vertex="1">
          <mxGeometry x="330" y="1855" width="70" height="70" as="geometry" />
        </mxCell>
        <mxCell id="vFB9w--csMzwg7RSDVOJ-32" value="Not logged in" style="rounded=1;whiteSpace=wrap;html=1;" parent="1" vertex="1">
          <mxGeometry x="440" y="1860" width="120" height="60" as="geometry" />
        </mxCell>
        <mxCell id="vFB9w--csMzwg7RSDVOJ-34" value="logged in" style="rounded=0;whiteSpace=wrap;html=1;" parent="1" vertex="1">
          <mxGeometry x="711" y="1857" width="120" height="60" as="geometry" />
        </mxCell>
        <mxCell id="AoWH3DuFOTNRUcTnW1il-29" style="edgeStyle=orthogonalEdgeStyle;rounded=0;orthogonalLoop=1;jettySize=auto;html=1;entryX=0;entryY=0.5;entryDx=0;entryDy=0;" edge="1" parent="1" source="vFB9w--csMzwg7RSDVOJ-38" target="vFB9w--csMzwg7RSDVOJ-43">
          <mxGeometry relative="1" as="geometry">
            <Array as="points">
              <mxPoint x="1000" y="1880" />
              <mxPoint x="1000" y="1835" />
            </Array>
          </mxGeometry>
        </mxCell>
        <mxCell id="AoWH3DuFOTNRUcTnW1il-32" style="edgeStyle=orthogonalEdgeStyle;rounded=0;orthogonalLoop=1;jettySize=auto;html=1;entryX=0;entryY=0.5;entryDx=0;entryDy=0;" edge="1" parent="1" source="vFB9w--csMzwg7RSDVOJ-38" target="vFB9w--csMzwg7RSDVOJ-42">
          <mxGeometry relative="1" as="geometry" />
        </mxCell>
        <mxCell id="vFB9w--csMzwg7RSDVOJ-38" value="" style="html=1;points=[];perimeter=orthogonalPerimeter;fillColor=strokeColor;" parent="1" vertex="1">
          <mxGeometry x="960" y="1850" width="10" height="80" as="geometry" />
        </mxCell>
        <mxCell id="vFB9w--csMzwg7RSDVOJ-42" value="filters" style="rounded=0;whiteSpace=wrap;html=1;" parent="1" vertex="1">
          <mxGeometry x="1030" y="1905" width="120" height="60" as="geometry" />
        </mxCell>
        <mxCell id="vFB9w--csMzwg7RSDVOJ-43" value="no filters" style="rounded=0;whiteSpace=wrap;html=1;" parent="1" vertex="1">
          <mxGeometry x="1030" y="1805" width="120" height="60" as="geometry" />
        </mxCell>
        <mxCell id="vFB9w--csMzwg7RSDVOJ-46" value="" style="html=1;points=[];perimeter=orthogonalPerimeter;fillColor=strokeColor;" parent="1" vertex="1">
          <mxGeometry x="1220" y="1845" width="10" height="80" as="geometry" />
        </mxCell>
        <mxCell id="vFB9w--csMzwg7RSDVOJ-48" value="property search results&amp;nbsp;" style="rounded=0;whiteSpace=wrap;html=1;" parent="1" vertex="1">
          <mxGeometry x="1334" y="1855" width="120" height="60" as="geometry" />
        </mxCell>
        <mxCell id="vFB9w--csMzwg7RSDVOJ-49" value="" style="endArrow=classic;html=1;rounded=0;" parent="1" edge="1" target="vFB9w--csMzwg7RSDVOJ-48">
          <mxGeometry width="50" height="50" relative="1" as="geometry">
            <mxPoint x="1230" y="1884.78" as="sourcePoint" />
            <mxPoint x="1310" y="1885.22" as="targetPoint" />
          </mxGeometry>
        </mxCell>
        <mxCell id="vFB9w--csMzwg7RSDVOJ-50" value="view property" style="text;html=1;align=center;verticalAlign=middle;resizable=0;points=[];autosize=1;strokeColor=none;fillColor=none;" parent="1" vertex="1">
          <mxGeometry x="1470" y="1860" width="90" height="30" as="geometry" />
        </mxCell>
        <mxCell id="vFB9w--csMzwg7RSDVOJ-51" value="" style="endArrow=classic;html=1;rounded=0;entryX=0;entryY=0.5;entryDx=0;entryDy=0;exitX=1;exitY=0.5;exitDx=0;exitDy=0;" parent="1" target="vFB9w--csMzwg7RSDVOJ-5" edge="1" source="vFB9w--csMzwg7RSDVOJ-48">
          <mxGeometry width="50" height="50" relative="1" as="geometry">
            <mxPoint x="1455" y="1878.89" as="sourcePoint" />
            <mxPoint x="1535" y="1879.3300000000002" as="targetPoint" />
          </mxGeometry>
        </mxCell>
        <mxCell id="AoWH3DuFOTNRUcTnW1il-8" value="logout" style="text;html=1;align=center;verticalAlign=middle;whiteSpace=wrap;rounded=0;" vertex="1" parent="1">
          <mxGeometry x="2495" y="1855" width="60" height="30" as="geometry" />
        </mxCell>
        <mxCell id="AoWH3DuFOTNRUcTnW1il-24" style="edgeStyle=orthogonalEdgeStyle;rounded=0;orthogonalLoop=1;jettySize=auto;html=1;entryX=0;entryY=0.5;entryDx=0;entryDy=0;" edge="1" parent="1" source="AoWH3DuFOTNRUcTnW1il-9" target="AoWH3DuFOTNRUcTnW1il-11">
          <mxGeometry relative="1" as="geometry" />
        </mxCell>
        <mxCell id="AoWH3DuFOTNRUcTnW1il-9" value="Not logged in&amp;nbsp;" style="rounded=0;whiteSpace=wrap;html=1;" vertex="1" parent="1">
          <mxGeometry x="2565" y="1855" width="120" height="60" as="geometry" />
        </mxCell>
        <mxCell id="AoWH3DuFOTNRUcTnW1il-15" value="" style="verticalLabelPosition=bottom;verticalAlign=top;html=1;shape=mxgraph.flowchart.or;" vertex="1" parent="1">
          <mxGeometry x="630" y="1867" width="40" height="40" as="geometry" />
        </mxCell>
        <mxCell id="AoWH3DuFOTNRUcTnW1il-17" value="" style="verticalLabelPosition=bottom;verticalAlign=top;html=1;shape=mxgraph.flowchart.or;" vertex="1" parent="1">
          <mxGeometry x="660" y="1275" width="40" height="40" as="geometry" />
        </mxCell>
        <mxCell id="AoWH3DuFOTNRUcTnW1il-23" style="edgeStyle=orthogonalEdgeStyle;rounded=0;orthogonalLoop=1;jettySize=auto;html=1;entryX=0;entryY=0.5;entryDx=0;entryDy=0;" edge="1" parent="1" source="AoWH3DuFOTNRUcTnW1il-18" target="AoWH3DuFOTNRUcTnW1il-9">
          <mxGeometry relative="1" as="geometry" />
        </mxCell>
        <mxCell id="AoWH3DuFOTNRUcTnW1il-18" value="" style="verticalLabelPosition=bottom;verticalAlign=top;html=1;shape=mxgraph.flowchart.or;" vertex="1" parent="1">
          <mxGeometry x="2455" y="1865" width="40" height="40" as="geometry" />
        </mxCell>
        <mxCell id="AoWH3DuFOTNRUcTnW1il-20" style="edgeStyle=orthogonalEdgeStyle;rounded=0;orthogonalLoop=1;jettySize=auto;html=1;entryX=0;entryY=0.5;entryDx=0;entryDy=0;entryPerimeter=0;" edge="1" parent="1" source="vFB9w--csMzwg7RSDVOJ-21" target="AoWH3DuFOTNRUcTnW1il-18">
          <mxGeometry relative="1" as="geometry" />
        </mxCell>
        <mxCell id="AoWH3DuFOTNRUcTnW1il-21" value="" style="group" vertex="1" connectable="0" parent="1">
          <mxGeometry x="2740" y="1845" width="80" height="80" as="geometry" />
        </mxCell>
        <mxCell id="AoWH3DuFOTNRUcTnW1il-11" value="" style="ellipse;whiteSpace=wrap;html=1;aspect=fixed;" vertex="1" parent="AoWH3DuFOTNRUcTnW1il-21">
          <mxGeometry width="80" height="80" as="geometry" />
        </mxCell>
        <mxCell id="AoWH3DuFOTNRUcTnW1il-12" value="" style="ellipse;whiteSpace=wrap;html=1;aspect=fixed;fillColor=#1A1A1A;" vertex="1" parent="AoWH3DuFOTNRUcTnW1il-21">
          <mxGeometry x="20" y="20" width="40" height="40" as="geometry" />
        </mxCell>
        <mxCell id="AoWH3DuFOTNRUcTnW1il-26" style="edgeStyle=orthogonalEdgeStyle;rounded=0;orthogonalLoop=1;jettySize=auto;html=1;entryX=0;entryY=0.5;entryDx=0;entryDy=0;" edge="1" parent="1" source="AoWH3DuFOTNRUcTnW1il-15" target="vFB9w--csMzwg7RSDVOJ-34">
          <mxGeometry relative="1" as="geometry" />
        </mxCell>
        <mxCell id="AoWH3DuFOTNRUcTnW1il-27" style="edgeStyle=orthogonalEdgeStyle;rounded=0;orthogonalLoop=1;jettySize=auto;html=1;entryX=-0.062;entryY=0.576;entryDx=0;entryDy=0;entryPerimeter=0;" edge="1" parent="1" source="vFB9w--csMzwg7RSDVOJ-42" target="vFB9w--csMzwg7RSDVOJ-46">
          <mxGeometry relative="1" as="geometry" />
        </mxCell>
        <mxCell id="AoWH3DuFOTNRUcTnW1il-28" style="edgeStyle=orthogonalEdgeStyle;rounded=0;orthogonalLoop=1;jettySize=auto;html=1;entryX=0.044;entryY=0.423;entryDx=0;entryDy=0;entryPerimeter=0;" edge="1" parent="1" source="vFB9w--csMzwg7RSDVOJ-43" target="vFB9w--csMzwg7RSDVOJ-46">
          <mxGeometry relative="1" as="geometry" />
        </mxCell>
        <mxCell id="AoWH3DuFOTNRUcTnW1il-33" style="edgeStyle=orthogonalEdgeStyle;rounded=0;orthogonalLoop=1;jettySize=auto;html=1;entryX=0.031;entryY=0.453;entryDx=0;entryDy=0;entryPerimeter=0;" edge="1" parent="1" source="vFB9w--csMzwg7RSDVOJ-34" target="vFB9w--csMzwg7RSDVOJ-38">
          <mxGeometry relative="1" as="geometry" />
        </mxCell>
        <mxCell id="AoWH3DuFOTNRUcTnW1il-34" style="edgeStyle=orthogonalEdgeStyle;rounded=0;orthogonalLoop=1;jettySize=auto;html=1;entryX=-0.005;entryY=0.563;entryDx=0;entryDy=0;entryPerimeter=0;" edge="1" parent="1" source="vFB9w--csMzwg7RSDVOJ-32" target="AoWH3DuFOTNRUcTnW1il-15">
          <mxGeometry relative="1" as="geometry" />
        </mxCell>
        <mxCell id="AoWH3DuFOTNRUcTnW1il-35" value="Buyer" style="text;html=1;align=center;verticalAlign=middle;resizable=0;points=[];autosize=1;strokeColor=none;fillColor=none;" vertex="1" parent="1">
          <mxGeometry x="280" y="1815" width="50" height="30" as="geometry" />
        </mxCell>
        <mxCell id="AoWH3DuFOTNRUcTnW1il-36" value="Seller" style="text;html=1;align=center;verticalAlign=middle;resizable=0;points=[];autosize=1;strokeColor=none;fillColor=none;" vertex="1" parent="1">
          <mxGeometry x="330" y="1230" width="50" height="30" as="geometry" />
        </mxCell>
        <mxCell id="AoWH3DuFOTNRUcTnW1il-40" style="edgeStyle=orthogonalEdgeStyle;rounded=0;orthogonalLoop=1;jettySize=auto;html=1;entryX=-0.169;entryY=0.367;entryDx=0;entryDy=0;entryPerimeter=0;" edge="1" parent="1" source="2qdgMQusHtdd9GZm5tY_-209" target="2qdgMQusHtdd9GZm5tY_-213">
          <mxGeometry relative="1" as="geometry" />
        </mxCell>
        <mxCell id="AoWH3DuFOTNRUcTnW1il-41" style="edgeStyle=orthogonalEdgeStyle;rounded=0;orthogonalLoop=1;jettySize=auto;html=1;entryX=-0.046;entryY=0.54;entryDx=0;entryDy=0;entryPerimeter=0;" edge="1" parent="1" source="2qdgMQusHtdd9GZm5tY_-210" target="2qdgMQusHtdd9GZm5tY_-213">
          <mxGeometry relative="1" as="geometry" />
        </mxCell>
        <mxCell id="AoWH3DuFOTNRUcTnW1il-43" style="edgeStyle=orthogonalEdgeStyle;rounded=0;orthogonalLoop=1;jettySize=auto;html=1;entryX=0.101;entryY=0.485;entryDx=0;entryDy=0;entryPerimeter=0;" edge="1" parent="1" source="2qdgMQusHtdd9GZm5tY_-192" target="2qdgMQusHtdd9GZm5tY_-201">
          <mxGeometry relative="1" as="geometry" />
        </mxCell>
        <mxCell id="AoWH3DuFOTNRUcTnW1il-46" style="edgeStyle=orthogonalEdgeStyle;rounded=0;orthogonalLoop=1;jettySize=auto;html=1;entryX=-0.164;entryY=0.591;entryDx=0;entryDy=0;entryPerimeter=0;" edge="1" parent="1" source="2qdgMQusHtdd9GZm5tY_-140" target="2qdgMQusHtdd9GZm5tY_-197">
          <mxGeometry relative="1" as="geometry" />
        </mxCell>
        <mxCell id="AoWH3DuFOTNRUcTnW1il-49" value="" style="group" vertex="1" connectable="0" parent="1">
          <mxGeometry x="2270" y="1237.5" width="80" height="80" as="geometry" />
        </mxCell>
        <mxCell id="2qdgMQusHtdd9GZm5tY_-175" value="" style="ellipse;whiteSpace=wrap;html=1;aspect=fixed;" parent="AoWH3DuFOTNRUcTnW1il-49" vertex="1">
          <mxGeometry width="80" height="80" as="geometry" />
        </mxCell>
        <mxCell id="2qdgMQusHtdd9GZm5tY_-176" value="" style="ellipse;whiteSpace=wrap;html=1;aspect=fixed;fillColor=#1A1A1A;" parent="AoWH3DuFOTNRUcTnW1il-49" vertex="1">
          <mxGeometry x="20" y="20" width="40" height="40" as="geometry" />
        </mxCell>
        <mxCell id="AoWH3DuFOTNRUcTnW1il-52" value="" style="html=1;points=[];perimeter=orthogonalPerimeter;fillColor=strokeColor;" vertex="1" parent="1">
          <mxGeometry x="915" y="1250" width="5" height="80" as="geometry" />
        </mxCell>
        <mxCell id="AoWH3DuFOTNRUcTnW1il-54" style="edgeStyle=orthogonalEdgeStyle;rounded=0;orthogonalLoop=1;jettySize=auto;html=1;entryX=0;entryY=0.5;entryDx=0;entryDy=0;entryPerimeter=0;" edge="1" parent="1" source="2qdgMQusHtdd9GZm5tY_-179" target="AoWH3DuFOTNRUcTnW1il-17">
          <mxGeometry relative="1" as="geometry" />
        </mxCell>
        <mxCell id="AoWH3DuFOTNRUcTnW1il-55" style="edgeStyle=orthogonalEdgeStyle;rounded=0;orthogonalLoop=1;jettySize=auto;html=1;entryX=0.003;entryY=0.585;entryDx=0;entryDy=0;entryPerimeter=0;" edge="1" parent="1" source="AoWH3DuFOTNRUcTnW1il-17" target="2qdgMQusHtdd9GZm5tY_-181">
          <mxGeometry relative="1" as="geometry" />
        </mxCell>
      </root>
    </mxGraphModel>
  </diagram>
</mxfile>
